<!-- icon666.com - MILLIONS vector ICONS FREE --><svg id="Image" viewBox="0 0 64 64" xmlns="http://www.w3.org/2000/svg"><g><g><path d="m32 45.001c-7.168 0-13-5.832-13-13s5.832-13 13-13 13 5.832 13 13-5.832 13-13 13zm0-24c-6.065 0-11 4.935-11 11s4.935 11 11 11 11-4.935 11-11-4.935-11-11-11z"></path></g><g><path d="m32.001 59.999c-.506 0-.933-.379-.993-.882-.695-5.846-1.139-8.906-2.866-9.115-.82-.107-1.714.2-3.414 1.998-.197.209-.436.353-.728.313-.01 0-.019 0-.029 0-.552-.017-.987-.477-.971-1.028.07-2.474-.349-3.319-1-3.828-1.369-1.073-3.849.776-8.474 4.421-.399.315-.968.281-1.326-.078-.358-.358-.392-.928-.079-1.325 3.643-4.627 5.494-7.105 4.42-8.474-.508-.652-1.344-1.081-3.827-1-.413-.002-.793-.234-.952-.617s-.064-.824.238-1.11c1.798-1.7 2.1-2.595 1.999-3.416-.209-1.729-3.27-2.171-9.116-2.864-.504-.059-.883-.486-.883-.993s.379-.934.882-.993c5.847-.695 8.908-1.139 9.117-2.865.101-.821-.201-1.715-1.999-3.415-.301-.285-.396-.726-.237-1.109.158-.383.537-.617.952-.617 2.472.068 3.319-.351 3.83-1.002 1.073-1.369-.778-3.846-4.422-8.471-.313-.398-.28-.968.079-1.326.357-.359.927-.393 1.326-.079 4.627 3.643 7.104 5.492 8.474 4.421.651-.51 1.07-1.355 1-3.829-.012-.414.233-.793.616-.952.383-.158.825-.064 1.109.236 1.703 1.798 2.599 2.099 3.416 2 1.729-.21 2.171-3.27 2.865-9.116.06-.503.486-.882.993-.882.506 0 .933.379.993.882.696 5.847 1.141 8.906 2.866 9.115.828.11 1.715-.201 3.415-1.999.284-.301.727-.396 1.109-.236.383.158.629.537.617.952-.069 2.473.35 3.319 1.001 3.828 1.369 1.071 3.846-.777 8.472-4.421.398-.314.968-.281 1.326.078.358.358.392.928.078 1.326-3.643 4.625-5.493 7.103-4.419 8.473.508.652 1.347 1.07 3.828 1.002.421-.002.794.235.951.618.159.383.064.824-.237 1.108-1.799 1.699-2.1 2.594-2 3.414.211 1.728 3.271 2.171 9.118 2.864.502.059.881.486.881.993s-.379.934-.882.993c-5.847.695-8.907 1.139-9.116 2.867-.102.819.2 1.712 1.998 3.413.301.285.396.727.236 1.109-.158.383-.531.611-.951.617-2.482-.069-3.32.35-3.828 1-1.073 1.371.777 3.848 4.42 8.473.313.398.28.968-.078 1.326-.359.358-.929.393-1.326.078-4.625-3.643-7.104-5.491-8.472-4.418-.651.509-1.07 1.354-1 3.827.012.415-.234.793-.617.952-.383.161-.825.064-1.109-.236-1.7-1.798-2.592-2.102-3.416-2-1.729.21-2.171 3.27-2.864 9.116-.061.504-.487.883-.994.883zm-4.121-12.014c.165 0 .332.01.503.031 2.014.243 2.991 1.75 3.617 4.318.625-2.567 1.602-4.075 3.617-4.319 1.322-.16 2.456.329 3.472 1.098.176-1.261.628-2.409 1.68-3.23 1.597-1.253 3.356-.877 5.61.496-1.373-2.258-1.748-4.015-.497-5.611.821-1.052 1.971-1.505 3.231-1.679-.769-1.017-1.26-2.148-1.097-3.472.243-2.015 1.75-2.991 4.318-3.617-2.567-.625-4.075-1.602-4.32-3.616-.162-1.325.33-2.457 1.098-3.472-1.262-.176-2.41-.629-3.23-1.681-1.251-1.597-.876-3.354.497-5.611-2.259 1.373-4.015 1.748-5.61.498-1.052-.822-1.505-1.971-1.68-3.231-1.016.769-2.147 1.267-3.472 1.097-2.014-.243-2.991-1.751-3.617-4.321-.625 2.57-1.602 4.078-3.618 4.322-1.325.159-2.456-.33-3.471-1.099-.175 1.262-.628 2.41-1.679 3.233-1.597 1.249-3.354.876-5.612-.499 1.375 2.259 1.75 4.016.498 5.613-.824 1.051-1.972 1.503-3.232 1.678.768 1.016 1.26 2.148 1.098 3.473-.244 2.014-1.751 2.99-4.319 3.616 2.568.625 4.076 1.602 4.319 3.617.163 1.325-.33 2.457-1.097 3.471 1.261.176 2.409.629 3.23 1.681 1.251 1.596.875 3.352-.498 5.609 2.26-1.374 4.016-1.748 5.614-.496 1.051.822 1.503 1.971 1.678 3.231.884-.668 1.858-1.128 2.969-1.128z"></path></g></g></svg>